<svg id="Layer_1" data-name="Layer 1" xmlns="http://www.w3.org/2000/svg" viewBox="0 0 443.19 483"><defs><style>.cls-1{fill:#0037c1;}</style></defs><title>logo</title><path class="cls-1" d="M247.06,11a94.68,94.68,0,0,1,94,78.15,94.57,94.57,0,0,1,115.66,41.32h0l0,.08.43.83a95.26,95.26,0,0,1-21.34,119.23A95.4,95.4,0,0,1,458,371.8h0l-.16.27a4.2,4.2,0,0,1-.35.51A94.34,94.34,0,0,1,343.9,413.69a94.57,94.57,0,0,1-186.71,1.63A94.56,94.56,0,0,1,43.71,377.59l-.18-.28.7,1.15L41.51,374a8.29,8.29,0,0,1-.43-.84A95.23,95.23,0,0,1,62.4,254,95.3,95.3,0,0,1,40.26,132.67h0l.16-.26c.1-.18.22-.36.33-.52A94.57,94.57,0,0,1,154.4,90.78,94.67,94.67,0,0,1,247.06,11Zm.06,17.05a76,76,0,0,0-75.67,76.24,9.44,9.44,0,0,1-1.09,5,9.29,9.29,0,0,1-12.58,3.82h0l-1.08-.57a76,76,0,0,0-100.17,29q-.16.38-.36.72h0l-.61,1.08a76.4,76.4,0,0,0,26.8,102.14,9.08,9.08,0,0,1,3.71,3.4,9.37,9.37,0,0,1-3,12.87h0l-2.16,1.4-.9.62a76.49,76.49,0,0,0-23.52,99l.59,1.07c.16.23.31.46.45.7h0l.63,1.07a76,76,0,0,0,101.5,27.81A9.28,9.28,0,0,1,174.06,401h0l.12,3.21L174,401a76,76,0,1,0,151.9-.57,9.31,9.31,0,0,1,13.68-8.85h0l1.08.57a76,76,0,0,0,100.08-29h0l.37-.74h0A76.37,76.37,0,0,0,415,259.28a9.38,9.38,0,0,1-.74-16.3h0a76.49,76.49,0,0,0,26-102.17,6,6,0,0,1-.43-.68h0l-.63-1.06a75.85,75.85,0,0,0-101.5-27.8,9.44,9.44,0,0,1-4.8,1.54,9.34,9.34,0,0,1-9.63-9h0v-.06A76,76,0,0,0,247.12,28.05ZM190.23,269.44a19.54,19.54,0,0,1,33.69,18.94c-3.31,7.07-3.49,11.24-1.25,16.22h0l17,36.24c3.33,7.3,10.55,9.77,16.45,11.2h0a43,43,0,1,1-44.21,15.65c4.74-6.21,6.16-10.55,4.35-18.34h0l-9.12-39.18c-1.26-5.06-3.85-7.59-11.21-11.84A19.55,19.55,0,0,1,190.23,269.44Zm5-58.08a19.61,19.61,0,0,1,4,39c-7.77.64-11.47,2.57-14.68,7h0l-22.8,32.9c-4.62,6.53-3.16,14-1.43,19.87a43.17,43.17,0,1,1-35.63-30.61c7.75,1,12.21.11,18-5.36h0L172,246.6c3.76-3.62,4.63-7.13,4.63-15.64A19.61,19.61,0,0,1,195.2,211.36ZM341,291.09a43.13,43.13,0,1,1-8.64,46.25c-3-7.25-6-10.65-13.65-13h0l-38.36-11.65c-5-1.44-8.47-.46-15.81,3.8a19.31,19.31,0,0,1-13.26,2.32,19.61,19.61,0,1,1,18.65-31.64c4.44,6.44,8,8.7,13.36,9.21h0l39.82,3.35C331.05,300.52,336.86,295.49,341,291.09Zm-2.05-145.36a43.17,43.17,0,1,1,26.7,71.35c-7.73-1.05-12.2-.1-18,5.37h0L318.38,250c-3.76,3.64-4.62,7.14-4.62,15.67a19.54,19.54,0,1,1-22.62-19.37c7.8-.63,11.5-2.57,14.64-7h0l22.78-32.89c4.65-6.56,3.17-14,1.46-19.9a43.17,43.17,0,0,1,8.45-40.19h0ZM244.25,58.42a43.17,43.17,0,0,1,34.13,69.65c-4.69,6.16-6.17,10.5-4.26,18.4h0l9.13,39.06c1.25,5.07,3.84,7.6,11.18,11.84a19.53,19.53,0,1,1-28,10c3.31-7.07,3.52-11.27,1.26-16.22h0l-17-36.27c-3.35-7.29-10.55-9.76-16.45-11.18h0l-.08,0A43.27,43.27,0,0,1,229.7,61,42.22,42.22,0,0,1,244.25,58.42Zm-134.8,75.06A43.15,43.15,0,0,1,158,159.23c3,7.24,6,10.65,13.65,13h0l38.39,11.66c5,1.44,8.46.43,15.8-3.82a19.61,19.61,0,1,1-5.4,29.33c-4.44-6.43-8-8.69-13.37-9.21h0l-39.79-3.35c-8-.76-13.78,4.26-17.89,8.68a43.16,43.16,0,1,1-39.95-72Z" transform="translate(-27.52 -11)"/></svg>