<?xml version="1.0" encoding="utf-8"?>
<!-- Generator: Adobe Illustrator 23.0.5, SVG Export Plug-In . SVG Version: 6.00 Build 0)  -->
<svg version="1.1" id="Layer_1" xmlns="http://www.w3.org/2000/svg" xmlns:xlink="http://www.w3.org/1999/xlink" x="0px" y="0px"
	 viewBox="0 0 960 235" style="enable-background:new 0 0 960 235;" xml:space="preserve">
<style type="text/css">
	.st0{fill:none;}
</style>
<g>
	<rect y="11.4" class="st0" width="1000" height="238.74"/>
	<path fill="#eee" d="M131.25,183.9h-7.61l-12.21-16.94c-3,2.69-6.17,5.21-9.51,7.55c-3.34,2.34-6.86,4.38-10.54,6.11s-7.47,3.09-11.35,4.09
		c-3.88,1-7.82,1.5-11.81,1.5c-8.68,0-16.84-1.63-24.49-4.9c-7.65-3.26-14.33-7.8-20.05-13.6c-5.72-5.8-10.24-12.68-13.54-20.63
		c-3.3-7.95-4.96-16.61-4.96-25.99c0-9.29,1.65-17.94,4.96-25.93c3.3-7.99,7.82-14.9,13.54-20.74c5.72-5.84,12.41-10.41,20.05-13.71
		c7.64-3.3,15.81-4.96,24.49-4.96c2.77,0,5.63,0.23,8.58,0.69c2.96,0.46,5.84,1.21,8.64,2.25c2.8,1.04,5.43,2.4,7.89,4.09
		c2.46,1.69,4.53,3.77,6.22,6.22V11.4h31.69V183.9z M99.56,121.1c0-4.3-0.83-8.47-2.48-12.5c-1.65-4.03-3.9-7.61-6.74-10.72
		c-2.84-3.11-6.17-5.61-9.97-7.49c-3.8-1.88-7.86-2.82-12.16-2.82c-4.3,0-8.35,0.77-12.16,2.3c-3.8,1.54-7.11,3.75-9.91,6.63
		c-2.81,2.88-5.01,6.4-6.63,10.54s-2.42,8.84-2.42,14.06c0,4.53,0.81,8.83,2.42,12.91c1.61,4.07,3.82,7.65,6.63,10.72
		c2.8,3.07,6.11,5.49,9.91,7.26c3.8,1.77,7.85,2.65,12.16,2.65c4.3,0,8.35-0.94,12.16-2.82c3.8-1.88,7.12-4.38,9.97-7.49
		c2.84-3.11,5.09-6.68,6.74-10.72C98.74,129.57,99.56,125.4,99.56,121.1z"/>
	<path fill="#eee" d="M204.31,153.71c1.23,0.39,2.46,0.63,3.69,0.75c1.23,0.12,2.46,0.17,3.69,0.17c3.07,0,6.03-0.42,8.87-1.27
		c2.84-0.84,5.51-2.05,8.01-3.63c2.5-1.57,4.72-3.5,6.68-5.76c1.96-2.26,3.55-4.78,4.78-7.55l23.05,23.16
		c-2.92,4.15-6.28,7.88-10.08,11.18c-3.8,3.3-7.91,6.11-12.33,8.41c-4.42,2.3-9.07,4.05-13.94,5.24c-4.88,1.19-9.89,1.79-15.04,1.79
		c-8.68,0-16.84-1.61-24.49-4.84c-7.65-3.23-14.33-7.72-20.05-13.48c-5.72-5.76-10.24-12.62-13.54-20.57
		c-3.3-7.95-4.96-16.69-4.96-26.22c0-9.76,1.65-18.67,4.96-26.73c3.3-8.07,7.82-14.94,13.54-20.63c5.72-5.68,12.41-10.1,20.05-13.25
		c7.64-3.15,15.81-4.72,24.49-4.72c5.15,0,10.18,0.62,15.1,1.84c4.92,1.23,9.58,3,14,5.3c4.42,2.3,8.55,5.13,12.39,8.47
		c3.84,3.34,7.22,7.09,10.14,11.24L204.31,153.71z M220.44,88.83c-1.46-0.54-2.9-0.88-4.32-1.04c-1.42-0.15-2.9-0.23-4.44-0.23
		c-4.3,0-8.35,0.79-12.16,2.36c-3.8,1.58-7.11,3.82-9.91,6.74c-2.81,2.92-5.01,6.44-6.63,10.54c-1.61,4.11-2.42,8.74-2.42,13.89
		c0,1.15,0.06,2.46,0.17,3.92c0.12,1.46,0.31,2.94,0.58,4.44c0.27,1.5,0.59,2.94,0.98,4.32c0.38,1.38,0.88,2.61,1.5,3.69
		L220.44,88.83z"/>
	<path fill="#eee" d="M312.52,183.9L265.5,60.49h35.84l26.96,76.98l26.85-76.98h35.95L344.09,183.9H312.52z"/>
	<path fill="#eee" d="M518.79,183.9h-7.61l-12.21-16.94c-3,2.69-6.17,5.21-9.51,7.55c-3.34,2.34-6.86,4.38-10.54,6.11s-7.47,3.09-11.35,4.09
		c-3.88,1-7.82,1.5-11.81,1.5c-8.68,0-16.84-1.63-24.49-4.9c-7.65-3.26-14.33-7.8-20.05-13.6c-5.72-5.8-10.24-12.68-13.54-20.63
		c-3.3-7.95-4.96-16.61-4.96-25.99c0-9.29,1.65-17.94,4.96-25.93c3.3-7.99,7.82-14.9,13.54-20.74c5.72-5.84,12.41-10.41,20.05-13.71
		c7.64-3.3,15.81-4.96,24.49-4.96c2.77,0,5.63,0.23,8.58,0.69c2.96,0.46,5.84,1.21,8.64,2.25c2.8,1.04,5.43,2.4,7.89,4.09
		c2.46,1.69,4.53,3.77,6.22,6.22V11.4h31.69V183.9z M487.1,121.1c0-4.3-0.83-8.47-2.48-12.5c-1.65-4.03-3.9-7.61-6.74-10.72
		c-2.84-3.11-6.17-5.61-9.97-7.49c-3.8-1.88-7.86-2.82-12.16-2.82c-4.3,0-8.35,0.77-12.16,2.3c-3.8,1.54-7.11,3.75-9.91,6.63
		c-2.81,2.88-5.01,6.4-6.63,10.54s-2.42,8.84-2.42,14.06c0,4.53,0.81,8.83,2.42,12.91c1.61,4.07,3.82,7.65,6.63,10.72
		c2.8,3.07,6.11,5.49,9.91,7.26c3.8,1.77,7.85,2.65,12.16,2.65c4.3,0,8.35-0.94,12.16-2.82c3.8-1.88,7.12-4.38,9.97-7.49
		c2.84-3.11,5.09-6.68,6.74-10.72C486.27,129.57,487.1,125.4,487.1,121.1z"/>
	<path fill="#eee" d="M591.84,153.71c1.23,0.39,2.46,0.63,3.69,0.75c1.23,0.12,2.46,0.17,3.69,0.17c3.07,0,6.03-0.42,8.87-1.27
		c2.84-0.84,5.51-2.05,8.01-3.63c2.5-1.57,4.72-3.5,6.68-5.76c1.96-2.26,3.55-4.78,4.78-7.55l23.05,23.16
		c-2.92,4.15-6.28,7.88-10.08,11.18c-3.8,3.3-7.91,6.11-12.33,8.41c-4.42,2.3-9.07,4.05-13.94,5.24c-4.88,1.19-9.89,1.79-15.04,1.79
		c-8.68,0-16.84-1.61-24.49-4.84c-7.65-3.23-14.33-7.72-20.05-13.48c-5.72-5.76-10.24-12.62-13.54-20.57
		c-3.3-7.95-4.96-16.69-4.96-26.22c0-9.76,1.65-18.67,4.96-26.73c3.3-8.07,7.82-14.94,13.54-20.63c5.72-5.68,12.41-10.1,20.05-13.25
		c7.64-3.15,15.8-4.72,24.49-4.72c5.15,0,10.18,0.62,15.1,1.84c4.92,1.23,9.58,3,14,5.3c4.42,2.3,8.54,5.13,12.39,8.47
		c3.84,3.34,7.22,7.09,10.14,11.24L591.84,153.71z M607.98,88.83c-1.46-0.54-2.9-0.88-4.32-1.04c-1.42-0.15-2.9-0.23-4.44-0.23
		c-4.3,0-8.35,0.79-12.16,2.36c-3.8,1.58-7.11,3.82-9.91,6.74c-2.81,2.92-5.01,6.44-6.63,10.54c-1.61,4.11-2.42,8.74-2.42,13.89
		c0,1.15,0.06,2.46,0.17,3.92c0.12,1.46,0.31,2.94,0.58,4.44c0.27,1.5,0.59,2.94,0.98,4.32c0.38,1.38,0.88,2.61,1.5,3.69
		L607.98,88.83z"/>
	<path fill="#eee" d="M823.58,183.9h-31.34v-78.36c0-2.15-0.4-4.19-1.21-6.11c-0.81-1.92-1.94-3.61-3.4-5.07c-1.46-1.46-3.15-2.59-5.07-3.4
		c-1.92-0.81-3.96-1.21-6.11-1.21c-2.15,0-4.17,0.4-6.05,1.21c-1.88,0.81-3.53,1.94-4.96,3.4c-1.42,1.46-2.54,3.15-3.34,5.07
		c-0.81,1.92-1.21,3.96-1.21,6.11v78.36h-31.46v-78.36c0-2.15-0.4-4.19-1.21-6.11c-0.81-1.92-1.94-3.61-3.4-5.07
		c-1.46-1.46-3.15-2.59-5.07-3.4c-1.92-0.81-3.96-1.21-6.11-1.21c-2.15,0-4.17,0.4-6.05,1.21c-1.88,0.81-3.53,1.94-4.96,3.4
		c-1.42,1.46-2.54,3.15-3.34,5.07c-0.81,1.92-1.21,3.96-1.21,6.11v78.36h-31.46V60.49h7.61l8.53,9.45c4.38-3.69,9.2-6.55,14.46-8.58
		c5.26-2.03,10.73-3.05,16.42-3.05c5.76,0,11.39,1.08,16.88,3.23c5.49,2.15,10.31,5.88,14.46,11.18c1.92-2.61,4.11-4.84,6.57-6.68
		c2.46-1.84,5.05-3.34,7.78-4.49c2.73-1.15,5.55-1.98,8.47-2.48c2.92-0.5,5.8-0.75,8.64-0.75c6.53,0,12.66,1.23,18.38,3.69
		c5.72,2.46,10.72,5.82,14.98,10.08s7.62,9.28,10.08,15.04c2.46,5.76,3.69,11.91,3.69,18.44V183.9z"/>
	<path fill="#eee" d="M876.24,230.92v-31.69l17.52,0.23c3.07,0,6.03-0.5,8.87-1.5c2.84-1,5.47-2.38,7.89-4.15c2.42-1.77,4.55-3.86,6.4-6.28
		s3.34-5.05,4.49-7.89c-3.46,1.46-6.97,2.92-10.54,4.38s-7.16,2.19-10.77,2.19c-7.61,0-14.75-1.34-21.43-4.03
		s-12.54-6.51-17.57-11.47c-5.03-4.96-8.99-10.99-11.87-18.09c-2.88-7.1-4.32-15.08-4.32-23.91V60.49h31.34v68.22
		c0,4.38,0.63,8.2,1.9,11.47c1.27,3.27,2.98,5.99,5.13,8.18c2.15,2.19,4.67,3.82,7.55,4.9c2.88,1.08,5.97,1.61,9.28,1.61
		c3.23,0,6.28-0.75,9.16-2.25s5.4-3.47,7.55-5.93c2.15-2.46,3.84-5.24,5.07-8.35c1.23-3.11,1.84-6.32,1.84-9.62V60.49h31.69v107.86
		c-0.08,8.68-1.77,16.82-5.07,24.43c-3.3,7.61-7.82,14.25-13.54,19.94c-5.72,5.68-12.39,10.18-19.99,13.48
		c-7.61,3.3-15.75,4.96-24.43,4.96L876.24,230.92z"/>
</g>
<g>
</g>
<g>
</g>
<g>
</g>
<g>
</g>
<g>
</g>
<g>
</g>
<g>
</g>
<g>
</g>
<g>
</g>
<g>
</g>
<g>
</g>
</svg>
