<?xml version="1.0" encoding="iso-8859-1"?>
<!-- Generator: Adobe Illustrator 19.0.0, SVG Export Plug-In . SVG Version: 6.00 Build 0)  -->
<svg version="1.1" id="Layer_1" xmlns="http://www.w3.org/2000/svg" xmlns:xlink="http://www.w3.org/1999/xlink" x="0px" y="0px"
	 viewBox="0 0 512 512" style="enable-background:new 0 0 512 512;" xml:space="preserve">
<circle style="fill:#8AD5DD;" cx="256" cy="256" r="256"/>
<path style="fill:#DB2B42;" d="M419.384,326.672H92.696c-13.2,0-24-10.8-24-24V203.4c0-13.2,10.8-24,24-24h326.696
	c13.2,0,24,10.8,24,24v99.272C443.384,315.872,432.584,326.672,419.384,326.672z"/>
<g>
	<path style="fill:#FFFFFF;" d="M100.944,269.04c2.696,1.656,6.632,3.04,10.776,3.04c6.152,0,9.744-3.248,9.744-7.944
		c0-4.36-2.488-6.84-8.776-9.256c-7.6-2.696-12.296-6.632-12.296-13.2c0-7.248,6.008-12.64,15.056-12.64
		c4.768,0,8.224,1.112,10.296,2.28l-1.664,4.904c-1.52-0.832-4.632-2.208-8.84-2.208c-6.352,0-8.776,3.8-8.776,6.976
		c0,4.352,2.832,6.496,9.256,8.984c7.872,3.04,11.88,6.832,11.88,13.68c0,7.184-5.32,13.4-16.304,13.4
		c-4.496,0-9.392-1.312-11.88-2.968L100.944,269.04z"/>
	<path style="fill:#FFFFFF;" d="M141.872,229.792v27.568c0,10.432,4.632,14.848,10.848,14.848c6.912,0,11.336-4.552,11.336-14.848
		v-27.568h6.08v27.16c0,14.304-7.528,20.168-17.616,20.168c-9.536,0-16.72-5.456-16.72-19.896v-27.432L141.872,229.792
		L141.872,229.792z"/>
	<path style="fill:#FFFFFF;" d="M180.592,230.416c2.624-0.552,6.776-0.968,10.992-0.968c6.008,0,9.88,1.04,12.784,3.384
		c2.416,1.8,3.864,4.56,3.864,8.224c0,4.496-2.968,8.432-7.872,10.224v0.136c4.424,1.112,9.6,4.776,9.6,11.68
		c0,4.008-1.584,7.048-3.936,9.328c-3.248,2.968-8.496,4.352-16.096,4.352c-4.144,0-7.328-0.272-9.328-0.552v-45.808H180.592z
		 M186.608,249.488h5.456c6.36,0,10.088-3.32,10.088-7.816c0-5.456-4.152-7.592-10.224-7.592c-2.768,0-4.352,0.2-5.32,0.416
		L186.608,249.488L186.608,249.488z M186.608,271.8c1.176,0.208,2.904,0.28,5.04,0.28c6.216,0,11.952-2.28,11.952-9.056
		c0-6.352-5.456-8.984-12.016-8.984h-4.976L186.608,271.8L186.608,271.8z"/>
	<path style="fill:#FFFFFF;" d="M217.24,269.04c2.696,1.656,6.632,3.04,10.776,3.04c6.152,0,9.744-3.248,9.744-7.944
		c0-4.36-2.488-6.84-8.776-9.256c-7.6-2.696-12.304-6.632-12.304-13.2c0-7.248,6.008-12.64,15.064-12.64
		c4.768,0,8.224,1.112,10.296,2.28l-1.664,4.904c-1.52-0.832-4.632-2.208-8.84-2.208c-6.352,0-8.776,3.8-8.776,6.976
		c0,4.352,2.832,6.496,9.256,8.984c7.88,3.04,11.88,6.832,11.88,13.68c0,7.184-5.32,13.4-16.304,13.4
		c-4.496,0-9.392-1.312-11.88-2.968L217.24,269.04z"/>
	<path style="fill:#FFFFFF;" d="M284.704,274.84c-2.208,1.112-6.632,2.208-12.304,2.208c-13.128,0-23-8.288-23-23.552
		c0-14.576,9.88-24.464,24.32-24.464c5.808,0,9.472,1.24,11.056,2.072l-1.448,4.904c-2.28-1.104-5.528-1.928-9.4-1.928
		c-10.912,0-18.168,6.976-18.168,19.2c0,11.4,6.56,18.728,17.896,18.728c3.656,0,7.392-0.76,9.808-1.936L284.704,274.84z"/>
	<path style="fill:#FFFFFF;" d="M292.256,230.416c3.04-0.624,7.392-0.968,11.536-0.968c6.424,0,10.568,1.168,13.48,3.8
		c2.344,2.08,3.656,5.256,3.656,8.84c0,6.16-3.864,10.224-8.776,11.888v0.2c3.592,1.24,5.736,4.56,6.84,9.4
		c1.512,6.496,2.624,10.984,3.592,12.784h-6.216c-0.768-1.312-1.8-5.32-3.112-11.128c-1.384-6.424-3.872-8.84-9.328-9.048h-5.664
		v20.168h-6.016v-45.936H292.256z M298.272,251.632h6.152c6.424,0,10.496-3.52,10.496-8.84c0-6.008-4.352-8.64-10.712-8.704
		c-2.896,0-4.976,0.272-5.936,0.544V251.632z"/>
	<path style="fill:#FFFFFF;" d="M335.464,229.792v46.568h-6.016v-46.568L335.464,229.792L335.464,229.792z"/>
	<path style="fill:#FFFFFF;" d="M345.976,230.416c2.624-0.552,6.776-0.968,10.984-0.968c6.016,0,9.88,1.04,12.784,3.384
		c2.424,1.8,3.872,4.56,3.872,8.224c0,4.496-2.976,8.432-7.88,10.224v0.136c4.424,1.112,9.608,4.776,9.608,11.68
		c0,4.008-1.592,7.048-3.936,9.328c-3.248,2.968-8.496,4.352-16.104,4.352c-4.152,0-7.32-0.272-9.328-0.552V230.416z
		 M351.992,249.488h5.456c6.36,0,10.088-3.32,10.088-7.816c0-5.456-4.144-7.592-10.216-7.592c-2.768,0-4.36,0.2-5.32,0.416v14.992
		H351.992z M351.992,271.8c1.168,0.208,2.896,0.28,5.04,0.28c6.216,0,11.952-2.28,11.952-9.056c0-6.352-5.464-8.984-12.024-8.984
		h-4.968V271.8L351.992,271.8z"/>
	<path style="fill:#FFFFFF;" d="M407.568,254.528h-18.104v16.792h20.176v5.048h-26.184V229.8h25.152v5.048h-19.136v14.72h18.104
		v4.96H407.568z"/>
</g>
<g>
</g>
<g>
</g>
<g>
</g>
<g>
</g>
<g>
</g>
<g>
</g>
<g>
</g>
<g>
</g>
<g>
</g>
<g>
</g>
<g>
</g>
<g>
</g>
<g>
</g>
<g>
</g>
<g>
</g>
</svg>
